<?xml version="1.0" encoding="utf-8"?>
<!-- Generator: Adobe Illustrator 15.1.0, SVG Export Plug-In . SVG Version: 6.00 Build 0)  -->
<!DOCTYPE svg PUBLIC "-//W3C//DTD SVG 1.1//EN" "http://www.w3.org/Graphics/SVG/1.1/DTD/svg11.dtd">
<svg version="1.1" id="レイヤー_1" xmlns="http://www.w3.org/2000/svg" xmlns:xlink="http://www.w3.org/1999/xlink" x="0px"
	 y="0px" width="479.999px" height="86.769px" viewBox="0 0 479.999 86.769" enable-background="new 0 0 479.999 86.769"
	 xml:space="preserve">
<g>
	<path d="M195.362,0.106c-17.966,0-32.528,14.564-32.528,32.528h-0.001v52.327h14.458v-25.28v-1.746h36.142v1.747v25.279h14.459
		V32.636C227.892,14.67,213.327,0.106,195.362,0.106z M213.433,32.636v10.843h-36.142V32.636v-0.001
		c0-9.98,8.092-18.069,18.071-18.069C205.343,14.565,213.433,22.655,213.433,32.636L213.433,32.636z"/>
	<path d="M140.774,43.491h-25.115v14.362h25.099c-4.986,8.694-14.357,14.552-25.099,14.552c-15.968,0-28.913-12.943-28.915-28.91
		c0-0.001,0-0.003,0-0.005c0-0.001,0-0.003,0-0.005c0.002-15.967,12.947-28.91,28.915-28.91c11.965,0,22.231,7.268,26.628,17.629
		l13.314-5.643c-6.596-15.542-21.995-26.443-39.942-26.443c-15.09,0-28.374,7.709-36.144,19.401
		C71.746,7.829,58.462,0.118,43.372,0.118C19.418,0.118,0,19.537,0,43.491c0,23.954,19.418,43.373,43.372,43.373
		c15.09,0,28.374-7.71,36.144-19.402c7.77,11.691,21.054,19.402,36.144,19.402c9.365,0,18.028-2.978,25.115-8.026v6.124h14.828
		V60.385v-10.27v-6.624h-3.799H140.774z M72.287,43.491c0,0.002,0,0.004,0,0.005c-0.003,15.967-12.948,28.91-28.915,28.91
		c-15.97,0-28.915-12.946-28.915-28.915c0-15.97,12.945-28.915,28.915-28.915c15.967,0,28.912,12.943,28.915,28.91
		C72.287,43.488,72.287,43.49,72.287,43.491z"/>
	<path d="M361.623,0c-17.964,0-32.528,14.563-32.528,32.528h-0.001v52.434h14.458V59.576v-1.748h36.143v1.748v25.386h14.458V32.528
		C394.152,14.563,379.588,0,361.623,0z M379.694,43.372h-36.143V32.528c0-9.98,8.092-18.07,18.071-18.07
		c9.98,0,18.071,8.09,18.071,18.07V43.372z"/>
	<path d="M476.386,16.265h3.613V1.807h-3.613c-15.168,0-28.434,8.125-35.695,20.256c-7.263-12.131-20.528-20.256-35.695-20.256
		h-3.614v14.458h3.614c14.978,0,27.12,12.142,27.12,27.12c0,14.977-12.143,27.119-27.12,27.119h-3.614v14.458h3.614
		c15.167,0,28.433-8.125,35.694-20.256c7.263,12.132,20.528,20.256,35.696,20.256h3.613V70.504h-3.613
		c-14.978,0-27.121-12.142-27.121-27.119C449.265,28.407,461.408,16.265,476.386,16.265z"/>
	<path d="M307.406,38.606L307.406,38.606v22.852c0,0.004,0,0.007,0,0.01c0,5.987-4.854,10.841-10.843,10.841
		s-10.843-4.854-10.843-10.841V38.606V1.807h-14.458v36.799h-0.001v22.852c0,0.004,0.001,0.007,0.001,0.01
		c0,5.987-4.854,10.841-10.842,10.841c-5.989,0-10.844-4.854-10.844-10.841V38.606V1.807h-13.495h-0.962h-0.001v59.661
		c0,13.971,11.328,25.3,25.301,25.3c7.081,0,13.479-2.913,18.072-7.601c4.592,4.688,10.99,7.601,18.071,7.601
		c13.973,0,25.3-11.329,25.3-25.3V1.807h-14.457V38.606z"/>
</g>
</svg>
